/* XPM */
static const char* const icon_xpm[] = {
"48 48 3 1",
" 	c None",
".	c #000083",
"+	c #AEADAD",
"................................................",
"................................................",
"................................................",
"................................................",
"................................................",
"................................................",
"................................................",
"................................................",
"................................................",
"..++++++++++++++++++++++++++++++++++++++++++++..",
"..++++++++++++++++++++++++++++++++++++++++++++..",
"..++++++++++++++++++++++++++++++++++++++++++++..",
"..................+++...........................",
"..................+++...........................",
"..++++++++++++++..+++..+++..++++++++++++++++++..",
"..++++++++++++++..+++..+++..++++++++++++++++++..",
"..++++++++++++++..+++..+++..++++++++++++++++++..",
"..+++........+++..+++..+++..+++.................",
"..+++........+++..+++..+++..+++.................",
"..+++........+++..+++..+++..+++.................",
"..+++........+++..+++..+++..++++++++++++++++++..",
"..+++........+++..+++..+++..++++++++++++++++++..",
"..+++........+++..+++..+++..++++++++++++++++++..",
"..+++........+++..+++..+++.................+++..",
"..+++........+++..+++..+++.................+++..",
"..+++........+++..+++..+++.................+++..",
"..+++........+++..+++..+++..++++++++++++++++++..",
"..+++........+++..+++..+++..++++++++++++++++++..",
"..+++........+++..+++..+++..++++++++++++++++++..",
"..+++........+++..+++..+++......................",
"..+++........+++..+++..+++......................",
"..++++++++++++++..+++..+++++++++++++++++++++++..",
"..++++++++++++++..+++..+++++++++++++++++++++++..",
"..++++++++++++++..+++..+++++++++++++++++++++++..",
"................................................",
"................................................",
"..++++++++++++++++++++++++++++++++++++++++++++..",
"..++++++++++++++++++++++++++++++++++++++++++++..",
"..++++++++++++++++++++++++++++++++++++++++++++..",
"................................................",
"................................................",
"................................................",
"................................................",
"................................................",
"................................................",
"................................................",
"................................................",
"................................................"};
